<svg id="Layer_1" data-name="Layer 1" xmlns="http://www.w3.org/2000/svg" viewBox="0 0 365.75 118.75"><defs><style>.cls-1{fill:red;}</style></defs><path class="cls-1" d="M154.1,186.71H133.75l-25.81-51.93c-1.91.11-3.47.17-4.67.17-.48,0-1,0-1.57,0s-1.14-.07-1.74-.13v32.27q0,10.48,1.57,13a7,7,0,0,0,6.41,3.61h3v3H78.25v-3h2.87A7.12,7.12,0,0,0,88,179.09q1.17-2.53,1.18-12V95.31q0-10.49-1.58-13a7.13,7.13,0,0,0-6.52-3.61H78.25v-3H106q12.14,0,17.91,2.58t9.78,9.5a32.34,32.34,0,0,1,4,16.51A33.6,33.6,0,0,1,133.16,122q-4.59,7.53-14.2,10.64l15.74,31.86q5.4,11,9.28,14.58a18.81,18.81,0,0,0,10.12,4.59ZM100,129.62c.71,0,1.33,0,1.85,0s1,.05,1.29.05q10.92,0,16.45-6.88t5.54-17.53q0-10.39-4.47-16.91t-11.84-6.51A35.17,35.17,0,0,0,100,83.43Z" transform="translate(-78.25 -70.25)"/><path class="cls-1" d="M165.35,139.94q-.06,16.71,5.56,26.21t13.22,9.5a11.59,11.59,0,0,0,8.79-4.05q3.75-4.07,6.27-13.88l1.75,1.63a48.17,48.17,0,0,1-6.86,20.44Q188.4,189,179.85,189q-9.27,0-15.88-10.52t-6.61-28.3q0-19.25,6.78-30t17-10.76q8.65,0,14.22,8.31t5.57,22.23Zm0-4.75h23.84A46.15,46.15,0,0,0,188,125a16.26,16.26,0,0,0-4.19-7.21,8.45,8.45,0,0,0-5.82-2.62q-4.67,0-8.35,5.28T165.35,135.19Z" transform="translate(-78.25 -70.25)"/><path class="cls-1" d="M244.17,178.27a29.79,29.79,0,0,1-7.36,8.23,13.33,13.33,0,0,1-7.76,2.5q-8.43,0-14.73-10.28T208,152.31a63,63,0,0,1,7-29.52q7-13.4,17.94-13.39,6.8,0,11.24,6.3V101.86q0-12.85-.42-15.81a8.37,8.37,0,0,0-1.32-4A2.82,2.82,0,0,0,240.18,81a8.78,8.78,0,0,0-3.88,1.31l-.73-2.87,15.35-9.17h2.53V157q0,13.19.42,16.09a8.6,8.6,0,0,0,1.35,4.05,2.72,2.72,0,0,0,2.17,1.15,9.15,9.15,0,0,0,4.05-1.39l.61,2.87L246.76,189h-2.59Zm0-5.73V133.88a35.44,35.44,0,0,0-2-10.15,15.88,15.88,0,0,0-4.47-6.92,8.54,8.54,0,0,0-5.43-2.34c-3.29,0-6.24,2.16-8.82,6.47q-5.12,8.52-5.12,24.9,0,16.54,4.95,25.35t11,8.8Q239.4,180,244.17,172.54Z" transform="translate(-78.25 -70.25)"/><path class="cls-1" d="M285.33,81.71v43.66h13.89q4.78,0,7-3.08t2.95-12.16h2.08v37.59h-2.08q-.06-6.47-1.15-9.5a9.76,9.76,0,0,0-3-4.54,9.23,9.23,0,0,0-5.76-1.52H285.33v34.89c0,5.63.25,9.34.73,11.14a6.87,6.87,0,0,0,2.36,3.52,8.24,8.24,0,0,0,5.18,2h2.75v3H263.63v-3h2.7a7.22,7.22,0,0,0,6.86-4q1.35-2.61,1.35-12.61V95.31c0-5.62-.25-9.34-.73-11.14a7,7,0,0,0-2.31-3.52,8.07,8.07,0,0,0-5.17-2h-2.7v-3h56.73l.73,24.41h-2q-1.46-7.78-3.4-11.43a12.72,12.72,0,0,0-4.78-5.28q-2.83-1.63-8.8-1.64Z" transform="translate(-78.25 -70.25)"/><path class="cls-1" d="M347.18,109.48v60.27q0,7,.7,9.38a7,7,0,0,0,2.08,3.48q1.38,1.15,5,1.15v3H330v-3c2.52,0,4.2-.36,5.06-1.07a7.16,7.16,0,0,0,2.06-3.52c.5-1.64.76-4.78.76-9.42V140.84a147.2,147.2,0,0,0-.51-15.8,7.69,7.69,0,0,0-1.24-3.65,2.82,2.82,0,0,0-2.3-1A8.38,8.38,0,0,0,330,121.6l-.78-2.95,15.52-9.17Zm-4.67-39.23a4.79,4.79,0,0,1,4,2.41,10.08,10.08,0,0,1,1.66,5.86,10.28,10.28,0,0,1-1.66,5.9,4.79,4.79,0,0,1-4,2.45,4.89,4.89,0,0,1-4.05-2.45,10.21,10.21,0,0,1-1.68-5.9,10.08,10.08,0,0,1,1.66-5.86A4.83,4.83,0,0,1,342.51,70.25Z" transform="translate(-78.25 -70.25)"/><path class="cls-1" d="M376.47,109.48v16.87q6.46-16.87,13.27-16.87a6.13,6.13,0,0,1,5.12,2.74,10.41,10.41,0,0,1,2,6.35,9.51,9.51,0,0,1-1.46,5.4,4.16,4.16,0,0,1-3.48,2.21q-2,0-4.42-2.82c-1.63-1.88-2.84-2.83-3.63-2.83s-1.4.55-2.19,1.64q-2.52,3.36-5.23,11.06v36a31.53,31.53,0,0,0,1.07,9.42,7.71,7.71,0,0,0,2.59,3.68,8.37,8.37,0,0,0,5.34,1.48v3H359.1v-3q3.93,0,5.85-1.8a7.61,7.61,0,0,0,2-4.18,59.9,59.9,0,0,0,.29-7.94V140.76q0-13.09-.37-15.6a7.12,7.12,0,0,0-1.35-3.64,3.07,3.07,0,0,0-2.44-1.15,8.22,8.22,0,0,0-3.94,1.23l-.56-2.95,15.57-9.17Z" transform="translate(-78.25 -70.25)"/><path class="cls-1" d="M408.41,139.94q-.06,16.71,5.57,26.21t13.21,9.5a11.61,11.61,0,0,0,8.8-4.05q3.74-4.07,6.27-13.88l1.74,1.63a48,48,0,0,1-6.86,20.44Q431.46,189,422.92,189q-9.29,0-15.89-10.52t-6.6-28.3q0-19.25,6.77-30t17-10.76q8.66,0,14.22,8.31T444,139.94Zm0-4.75h23.84A45.53,45.53,0,0,0,431.07,125a16.26,16.26,0,0,0-4.19-7.21,8.45,8.45,0,0,0-5.82-2.62q-4.67,0-8.35,5.28T408.41,135.19Z" transform="translate(-78.25 -70.25)"/></svg>